<?xml version="1.0" encoding="UTF-8" standalone="no"?>
<svg width="60px" height="60px" viewBox="0 0 60 60" version="1.1" xmlns="http://www.w3.org/2000/svg" xmlns:xlink="http://www.w3.org/1999/xlink" xmlns:sketch="http://www.bohemiancoding.com/sketch/ns">
    <!-- Generator: Sketch 3.2.2 (9983) - http://www.bohemiancoding.com/sketch -->
    <title>Datalocation</title>
    <desc>Created with Sketch.</desc>
    <defs></defs>
    <g id="stroked" stroke="none" stroke-width="1" fill="none" fill-rule="evenodd" sketch:type="MSPage">
        <g id="Tech" sketch:type="MSLayerGroup" transform="translate(-718.000000, -489.000000)" stroke="#1e4072" stroke-width="2" stroke-linecap="round" stroke-linejoin="round">
            <g id="Datalocation" transform="translate(728.000000, 491.000000)" sketch:type="MSShapeGroup">
                <path d="M25.8380637,39.1344977 C34.0357875,36.6364823 40,29.0147494 40,20 C40,8.954305 31.045695,0 20,0 C8.954305,0 0,8.954305 0,20 C0,29.0147494 5.96421245,36.6364823 14.1619363,39.1344977 L20,56 L25.8380579,39.1344995 L25.8380637,39.1344977 Z M20,33 C27.1797017,33 33,27.1797017 33,20 C33,12.8202983 27.1797017,7 20,7 C12.8202983,7 7,12.8202983 7,20 C7,27.1797017 12.8202983,33 20,33 Z" id="Oval-451"></path>
                <polygon id="Triangle-19" points="20 13 26 25 14 25 "></polygon>
            </g>
        </g>
    </g>
</svg>