<?xml version="1.0" encoding="iso-8859-1"?>
<!DOCTYPE svg PUBLIC "-//W3C//DTD SVG 1.1//EN" "http://www.w3.org/Graphics/SVG/1.1/DTD/svg11.dtd">
<svg 
 version="1.1" xmlns="http://www.w3.org/2000/svg" xmlns:xlink="http://www.w3.org/1999/xlink" x="0px" y="0px" width="512px"
	 height="512px" viewBox="0 0 512 512" style="enable-background:new 0 0 512 512;" xml:space="preserve"
><g id="afcae5a789ccd549f9c6e2a2f808d7a6"><g></g><path style="display: inline; fill-rule: evenodd; clip-rule: evenodd;" d="M421.95,273.934c34.72,6.889,58.461,13.599,58.461,13.599
		s-83.94-64.963-183.707-61.006c-112.697,4.47-183.562,76.912-183.562,76.912s19.246-14.759,58.956-27.218
		c-24.781,16.492-45.436,35.972-61.243,54.626c-10.041,11.853-25.188,14.522-25.188,14.522s1.002,12.342,7.19,15.353
		c6.458,3.136,18.114-3.061,18.114-3.061s60.453-72.202,135.514-96.224c2.69-0.265,5.431-0.506,8.2-0.728
		c-33.227,15.671-56.235,49.461-56.235,88.639c0,54.103,43.86,97.962,97.962,97.962c54.103,0,97.967-43.859,97.967-97.962
		c0-28.565-12.226-54.265-31.721-72.172c49.599,29.634,91.005,76.871,91.005,76.871s-67.385,101.048-132.35,111.852
		c-69.655,11.586-177.81-43.897-177.81-43.897s98.544,68.399,189.213,53.018c79.211-13.437,138.296-108.684,138.296-108.684
		s20.061-4.292,31.912-9.157c7.165-2.944,8.575-7.469,8.575-7.469S475.188,307.235,421.95,273.934z M369.557,350.555
		c0,39.198-31.775,70.974-70.974,70.974s-70.969-31.775-70.969-70.974s31.771-70.972,70.969-70.972S369.557,311.356,369.557,350.555
		z M85.667,162.477H0.5v-42.583h85.167V34.727h42.583v85.167h85.167v42.583H128.25v85.167H85.667V162.477z"></path></g></svg>